<?xml version="1.0" standalone="no"?>
<!DOCTYPE svg PUBLIC "-//W3C//DTD SVG 1.1//EN" "http://www.w3.org/Graphics/SVG/1.1/DTD/svg11.dtd">
<svg xmlns="http://www.w3.org/2000/svg">
<defs >
<font id="FiraSans" horiz-adv-x="536" ><font-face
    font-family="Fira Sans"
    units-per-em="1000"
    panose-1="2 11 8 3 5 0 0 2 0 4"
    ascent="1050"
    descent="-500"
    alphabetic="0" />
<glyph unicode=" " glyph-name="space" horiz-adv-x="227" />
<glyph unicode="!" glyph-name="exclam" horiz-adv-x="231" d="M50 255L92 693H258L176 255H50ZM136 164T158 141T181 83Q181 43 152 13T82 -17Q47 -17 25 6T2 65Q2 104 32 134T102 164Q136 164 158 141Z" />
<glyph unicode="&quot;" glyph-name="quotedbl" horiz-adv-x="430" d="M446 693L388 414H285L305 693H446ZM245 693L187 414H84L104 693H245Z" />
<glyph unicode="#" glyph-name="numbersign" horiz-adv-x="547" d="M437 248H494L479 143H409L370 0H241L279 143H181L142 0H14L52 143H-3L12 248H80L132 440H76L90 545H160L195 676H325L290 545H388L423 676H552L517 545H572L558 440H489L437 248ZM261 440L209
248H308L359 440H261Z" />
<glyph unicode="$" glyph-name="dollar" horiz-adv-x="540" d="M419 382T462 335T505 217Q505 168 483 122T413 41T288 -5L266 -161H153L175 -8Q112 -1 63 24T-18 88L72 172Q103 140 142 123T224 106Q278 106 310 131T343 199Q343 229 321 249T244 290Q154 321
113 368T71 478Q71 555 124 611T272 682L293 830H405L384 683Q477 669 550 599L468 517Q402 571 336 571Q289 571 261 553T233 499Q233 470 255 452T339 410Q419 382 462 335Z" />
<glyph unicode="%" glyph-name="percent" horiz-adv-x="849" d="M204 -40L116 22L669 720L757 658L204 -40ZM330 690T373 649T417 538Q417 489 396 441T329 362T218 330Q150 330 107 372T63 483Q63 532 85 579T152 658T262 690Q330 690 373 649ZM210 595T192 560T174
485Q174 425 226 425Q269 425 287 459T306 536Q306 595 255 595Q210 595 192 560ZM720 342T763 301T806 191Q806 142 785 94T718 15T607 -17Q539 -17 496 24T453 135Q453 184 475 231T542 310T652 342Q720 342 763 301ZM599 248T581 213T563 138Q563 77 615 77Q658
77 676 111T695 188Q695 248 644 248Q599 248 581 213Z" />
<glyph unicode="&amp;" glyph-name="ampersand" horiz-adv-x="781" d="M423 710T468 690T537 635T561 556Q561 501 524 457T403 361L518 234Q556 296 582 365L707 323Q658 227 594 150L691 47L561 -17L494 59Q443 19 387 1T267 -17Q201 -17 153 6T78 71T52 164Q52
230 87 278T208 377Q169 421 153 455T136 531Q136 575 158 616T232 683T362 710Q423 710 468 690ZM322 609T303 589T283 534Q283 511 293 491T325 444Q371 473 392 500T414 556Q414 579 398 594T356 609Q322 609 303 589ZM246 260T231 234T216 176Q216 139 238
117T303 95Q363 95 422 136L285 288Q246 260 231 234Z" />
<glyph unicode="&apos;" glyph-name="quotesingle" horiz-adv-x="229" d="M245 693L187 414H84L104 693H245Z" />
<glyph unicode="(" glyph-name="parenleft" horiz-adv-x="315" d="M295 687T249 585T184 346Q174 279 174 214Q174 128 193 54T254 -96L148 -157Q106 -84 80 -30T37 91T20 239Q20 299 28 354Q43 465 80 552T164 706T286 860L380 789Q295 687 249 585Z" />
<glyph unicode=")" glyph-name="parenright" horiz-adv-x="315" d="M233 784T259 730T302 609T319 460Q319 408 310 346Q295 235 258 148T174 -6T51 -160L-42 -89Q42 13 88 115T154 354Q165 428 165 486Q165 572 145 646T83 796L191 857Q233 784 259 730Z" />
<glyph unicode="*" glyph-name="asterisk" horiz-adv-x="439" d="M413 410L295 330L246 456L165 329L67 409L180 512L43 535L100 659L220 598L216 742H357L314 599L446 662L471 535L328 512L413 410Z" />
<glyph unicode="+" glyph-name="plus" horiz-adv-x="520" d="M491 393L474 271H325L303 115H174L196 271H48L65 393H213L234 549H364L342 393H491Z" />
<glyph unicode="," glyph-name="comma" horiz-adv-x="242" d="M138 164T160 142T183 85Q183 61 174 37T137 -34L54 -177H-34L34 1Q5 22 5 62Q5 104 33 134T104 164Q138 164 160 142Z" />
<glyph unicode="-" glyph-name="hyphen" horiz-adv-x="398" d="M371 374L354 252H40L57 374H371Z" />
<glyph unicode="." glyph-name="period" horiz-adv-x="240" d="M136 164T158 141T181 83Q181 43 152 13T82 -17Q47 -17 25 6T2 65Q2 104 32 134T102 164Q136 164 158 141Z" />
<glyph unicode="/" glyph-name="slash" horiz-adv-x="510" d="M156 -112L22 -79L379 817L512 785L156 -112Z" />
<glyph unicode="0" glyph-name="zero" horiz-adv-x="576" d="M446 690T501 624T556 434Q556 331 527 228T431 54T253 -17Q148 -17 94 49T39 241Q39 345 67 447T164 620T342 690Q446 690 501 624ZM300 573T276 551T235 476T205 333Q194 251 194 208Q194 150 210
125T262 100Q296 100 319 122T360 196T390 341Q402 422 402 467Q402 525 386 549T334 573Q300 573 276 551Z" />
<glyph unicode="1" glyph-name="one" horiz-adv-x="454" d="M185 0L258 513L102 424L49 538L293 676H431L337 0H185Z" />
<glyph unicode="2" glyph-name="two" horiz-adv-x="507" d="M354 690T401 667T472 605T497 515Q497 462 475 412T384 292T184 120L457 121L423 0H-9L5 114Q155 246 222 311T312 416T336 496Q336 531 316 550T261 569Q225 569 195 552T131 497L44 580Q95 633 156
661T287 690Q354 690 401 667Z" />
<glyph unicode="3" glyph-name="three" horiz-adv-x="510" d="M387 690T439 646T492 530Q492 475 456 427T338 356Q396 350 432 315T469 218Q469 166 441 112T350 21T187 -17Q113 -17 59 10T-29 87L66 165Q92 132 121 118T189 103Q242 103 276 136T311 227Q311
265 288 281T215 298H158L191 407H228Q285 407 311 439T338 510Q338 540 318 556T263 573Q226 573 192 558T123 513L55 603Q163 690 290 690Q387 690 439 646Z" />
<glyph unicode="4" glyph-name="four" horiz-adv-x="555" d="M444 146L423 0H271L291 146H9L24 251L270 693L400 643L194 264H309L349 424H483L460 264H535L518 146H444Z" />
<glyph unicode="5" glyph-name="five" horiz-adv-x="526" d="M248 563L226 421Q274 443 326 443Q402 443 446 395T491 257Q491 195 461 132T365 26T199 -17Q125 -17 74 10T-14 84L81 165Q130 102 203 102Q264 102 298 145T333 250Q333 335 254 335Q233 335 214
329T169 310L63 311L113 676H522L489 563H248Z" />
<glyph unicode="6" glyph-name="six" horiz-adv-x="553" d="M437 455T482 407T527 273Q527 211 499 144T410 30T257 -17Q144 -17 90 47T35 227Q35 267 41 313Q57 426 104 511T222 643T382 690Q468 690 529 643L460 551Q423 577 375 577Q319 577 277 530T215 397Q283
455 363 455Q437 455 482 407ZM303 96T327 125T361 195T371 272Q371 312 356 329T308 346Q255 346 200 291Q193 239 193 198Q193 144 209 120T263 96Q303 96 327 125Z" />
<glyph unicode="7" glyph-name="seven" horiz-adv-x="458" d="M161 -16L24 32L320 557H52L69 676H499L484 569L161 -16Z" />
<glyph unicode="8" glyph-name="eight" horiz-adv-x="571" d="M533 303T533 202Q533 143 498 93T398 13T247 -17Q174 -17 122 6T43 71T15 166Q15 222 50 270T166 350Q88 402 88 487Q88 541 117 587T204 662T340 690Q435 690 494 647T554 529Q554 481 523 438T423
361Q533 303 533 202ZM283 583T260 555T237 492Q237 464 253 445T305 410L324 403Q403 452 403 523Q403 551 385 567T334 583Q283 583 260 555ZM315 96T346 127T377 206Q377 236 357 255T289 294L259 305Q211 280 192 244T172 173Q172 137 195 117T261 96Q315 96
346 127Z" />
<glyph unicode="9" glyph-name="nine" horiz-adv-x="551" d="M430 690T488 631T547 473Q547 298 442 159T68 -29L48 83Q179 114 251 161T355 294Q295 234 215 234Q168 234 131 256T73 321T51 419Q51 484 80 546T170 649T322 690Q430 690 488 631ZM206 384T223
365T271 345Q300 345 328 361T381 407Q389 458 389 486Q389 534 372 555T317 577Q258 577 232 530T206 425Q206 384 223 365Z" />
<glyph unicode=":" glyph-name="colon" horiz-adv-x="241" d="M136 164T158 141T181 83Q181 43 152 13T82 -17Q47 -17 25 6T2 65Q2 104 32 134T102 164Q136 164 158 141ZM184 509T206 486T229 428Q229 388 200 358T130 328Q95 328 73 351T50 410Q50 449 80 479T150
509Q184 509 206 486Z" />
<glyph unicode=";" glyph-name="semicolon" horiz-adv-x="245" d="M140 164T162 142T185 85Q185 61 176 37T139 -34L56 -177H-32L36 1Q7 22 7 62Q7 104 35 134T106 164Q140 164 162 142ZM188 509T210 486T233 428Q233 388 204 358T134 328Q99 328 77 351T54 410Q54
449 84 479T154 509Q188 509 210 486Z" />
<glyph unicode="&lt;" glyph-name="less" horiz-adv-x="510" d="M175 332L468 205L403 90L34 263L53 402L470 576L510 458L175 332Z" />
<glyph unicode="=" glyph-name="equal" horiz-adv-x="509" d="M494 497L477 375H62L79 497H494ZM722 544L705 422H290L307 544H722Z" />
<glyph unicode="&gt;" glyph-name="greater" horiz-adv-x="509" d="M475 263L58 90L21 212L354 335L62 465L125 576L495 402L475 263Z" />
<glyph unicode="?" glyph-name="question" horiz-adv-x="472" d="M398 710T448 668T498 562Q498 511 479 477T433 423T363 380Q329 361 312 349T282 319T269 276Q269 261 271 254L134 233Q126 257 126 281Q126 326 143 357T185 406T249 447Q293 472 313 491T334
542Q334 563 319 574T275 586Q214 586 149 524L60 605Q163 710 303 710Q398 710 448 668ZM242 163T264 140T287 83Q287 43 258 13T188 -17Q153 -17 131 6T108 64Q108 104 138 133T208 163Q242 163 264 140Z" />
<glyph unicode="@" glyph-name="at" horiz-adv-x="1010" d="M695 710T785 663T923 536T970 356Q970 278 944 197T862 60T722 4Q685 4 656 18T611 56T592 103Q567 59 530 34T444 8Q365 8 325 55T284 182Q284 255 310 328T397 452T552 503Q594 503 638 491T718 457L680
163L679 145Q679 103 716 102Q755 102 781 144T819 247T831 364Q831 477 763 536T561 595Q423 595 339 532T219 376T183 186Q183 100 217 35T319 -68T482 -105Q526 -105 577 -95T670 -70L695 -181Q644 -200 585 -211T470 -222Q340 -222 243 -171T94 -27T41 183Q41
304 96 425T271 628T571 710Q695 710 785 663ZM515 107T546 161L580 395Q561 403 539 403Q477 403 450 331T423 170Q423 107 470 107Q515 107 546 161Z" />
<glyph unicode="A" glyph-name="A" horiz-adv-x="581" d="M172 149L117 0H-51L253 693H448L557 0H387L373 149H172ZM332 583L216 268H362L332 583Z" />
<glyph unicode="B" glyph-name="B" horiz-adv-x="607" d="M499 355T536 322T574 221Q574 121 498 61T248 0H27L124 693H327Q589 693 589 536Q589 466 546 424T437 366Q499 355 536 322ZM365 416T394 444T423 518Q423 550 400 563T329 577H268L246 416H306Q365
416 394 444ZM344 119T376 149T408 233Q408 307 304 307H231L204 119H262Q344 119 376 149Z" />
<glyph unicode="C" glyph-name="C" horiz-adv-x="565" d="M526 710T600 628L511 540Q485 565 459 577T398 589Q330 589 287 538T225 413T206 269Q206 188 238 149T328 110Q365 110 397 125T469 169L531 71Q488 33 430 8T307 -17Q182 -17 111 57T39 269Q39 373
76 474T193 643T395 710Q526 710 600 628Z" />
<glyph unicode="D" glyph-name="D" horiz-adv-x="642" d="M455 693T541 636T627 430Q627 241 534 121T234 0H27L124 693H312Q455 693 541 636ZM205 119H258Q368 119 414 212T461 430Q461 513 425 543T322 574H269L205 119Z" />
<glyph unicode="E" glyph-name="E" horiz-adv-x="517" d="M269 576L245 410H455L440 295H230L205 118H462L446 0H27L124 693H543L509 576H269Z" />
<glyph unicode="F" glyph-name="F" horiz-adv-x="479" d="M269 576L243 392H443L427 275H227L188 0H27L124 693H531L498 576H269Z" />
<glyph unicode="G" glyph-name="G" horiz-adv-x="635" d="M553 710T636 622L542 538Q512 566 484 578T415 591Q338 591 291 539T224 408T204 245Q204 169 232 136T317 103Q368 103 414 127L436 283H348L349 399H609L562 56Q506 21 440 2T307 -17Q173 -17 106 53T38
259Q38 371 77 474T202 643T417 710Q553 710 636 622Z" />
<glyph unicode="H" glyph-name="H" horiz-adv-x="656" d="M230 297L188 0H27L124 693H285L247 425H453L491 693H652L555 0H394L434 297H230Z" />
<glyph unicode="I" glyph-name="I" horiz-adv-x="290" d="M27 0L124 693H286L189 0H27Z" />
<glyph unicode="J" glyph-name="J" horiz-adv-x="310" d="M215 21T179 -33T91 -117T-30 -170L-59 -53Q-14 -36 11 -14T48 38T66 113L148 693H309L227 104Q215 21 179 -33Z" />
<glyph unicode="K" glyph-name="K" horiz-adv-x="623" d="M27 0L124 693H285L188 0H27ZM598 0H414L246 370L505 693H678L414 372L598 0Z" />
<glyph unicode="L" glyph-name="L" horiz-adv-x="506" d="M472 130L438 0H27L124 693H285L207 130H472Z" />
<glyph unicode="M" glyph-name="M" horiz-adv-x="783" d="M548 0L573 273Q587 425 611 567L438 73H283L238 565Q232 421 203 267L154 0H-4L145 693H342L380 212L541 693H751L706 0H548Z" />
<glyph unicode="N" glyph-name="N" horiz-adv-x="653" d="M348 0L220 557Q221 551 221 537Q222 519 222 480Q222 372 205 246L170 0H27L124 693H327L457 136Q454 190 454 236Q454 316 467 421L506 693H649L552 0H348Z" />
<glyph unicode="O" glyph-name="O" horiz-adv-x="681" d="M527 710T596 636T665 426Q665 321 630 220T514 51T304 -17Q177 -17 108 57T39 267Q39 371 74 472T191 641T401 710Q527 710 596 636ZM319 590T278 534T221 401T205 249Q205 103 315 103Q385 103 426 159T483
293T499 447Q499 521 472 555T389 590Q319 590 278 534Z" />
<glyph unicode="P" glyph-name="P" horiz-adv-x="591" d="M467 693T534 644T602 500Q602 431 571 370T471 270T296 231H221L188 0H27L124 693H344Q467 693 534 644ZM371 349T402 391T434 492Q434 536 408 556T328 576H269L237 349H296Q371 349 402 391Z" />
<glyph unicode="Q" glyph-name="Q" horiz-adv-x="680" d="M665 306T618 199T468 42Q534 40 577 24T659 -22L546 -148Q499 -85 445 -51T304 -17Q177 -17 108 57T39 267Q39 371 74 472T191 641T401 710Q527 710 596 636T665 426Q665 306 618 199ZM205 103T315 103Q385
103 426 159T483 293T499 447Q499 521 472 555T389 590Q319 590 278 534T221 401T205 249Q205 103 315 103Z" />
<glyph unicode="R" glyph-name="R" horiz-adv-x="607" d="M601 443T567 386T443 291L573 0H397L292 264L225 265L188 0H27L124 693H347Q474 693 537 650T601 518Q601 443 567 386ZM312 378Q379 378 406 416T434 506Q434 543 409 560T330 578H269L241 378H312Z" />
<glyph unicode="S" glyph-name="S" horiz-adv-x="562" d="M483 710T569 619L483 533Q423 590 343 590Q296 590 267 570T238 513Q238 493 248 479T283 453T354 424Q442 395 487 349T532 227Q532 168 503 112T408 20T236 -17Q152 -17 90 10T-16 84L77 176Q143 108
236 108Q293 108 327 133T362 200Q362 235 338 256T253 300Q156 331 113 378T69 495Q69 549 98 598T189 678T342 710Q483 710 569 619Z" />
<glyph unicode="T" glyph-name="T" horiz-adv-x="530" d="M388 567L309 0H147L227 567H50L68 693H591L556 567H388Z" />
<glyph unicode="U" glyph-name="U" horiz-adv-x="641" d="M566 119T489 51T283 -17Q166 -17 106 38T46 187Q46 210 49 232L114 693H275L211 235Q208 214 208 195Q208 149 229 128T295 105Q350 105 380 138T421 238L485 693H647L582 229Q566 119 489 51Z" />
<glyph unicode="V" glyph-name="V" horiz-adv-x="561" d="M148 0L47 693H215L265 128L467 693H635L348 0H148Z" />
<glyph unicode="W" glyph-name="W" horiz-adv-x="837" d="M466 0L455 529L290 0H86L71 693H230L218 124L393 693H563L572 124L731 693H886L675 0H466Z" />
<glyph unicode="X" glyph-name="X" horiz-adv-x="571" d="M539 0H365L285 270L132 0H-42L200 368L201 369L71 693H243L309 465L446 693H619L395 374L394 373L539 0Z" />
<glyph unicode="Y" glyph-name="Y" horiz-adv-x="584" d="M336 0H174L211 259L53 693H225L309 388L478 693H652L372 260L336 0Z" />
<glyph unicode="Z" glyph-name="Z" horiz-adv-x="534" d="M189 130L490 131L455 0H-20L-4 123L360 566H90L108 693H563L546 569L189 130Z" />
<glyph unicode="[" glyph-name="bracketleft" horiz-adv-x="314" d="M240 705L140 -6H254L237 -123H-24L110 823H370L354 705H240Z" />
<glyph unicode="\" glyph-name="backslash" horiz-adv-x="510" d="M250 -112L145 785L283 816L390 -81L250 -112Z" />
<glyph unicode="]" glyph-name="bracketright" horiz-adv-x="314" d="M-32 -123L-16 -5H98L198 705H84L101 823H362L229 -123H-32Z" />
<glyph unicode="^" glyph-name="asciicircum" horiz-adv-x="549" d="M416 527L339 726L209 527H53L285 844H426L568 527H416Z" />
<glyph unicode="_" glyph-name="underscore" horiz-adv-x="510" d="M458 -47L440 -171H-53L-36 -47H458Z" />
<glyph unicode="`" glyph-name="grave" horiz-adv-x="330" d="M311 622L91 717L168 835L363 702L311 622Z" />
<glyph unicode="a" glyph-name="a" horiz-adv-x="572" d="M446 548T548 492L497 152Q495 136 495 130Q495 112 502 103T523 88L479 -14Q432 -10 400 11T356 74Q292 -17 199 -17Q114 -17 70 39T25 194Q25 278 56 359T156 494T330 548Q446 548 548 492ZM277 436T246
399T200 307T186 195Q186 142 202 121T247 99Q299 99 347 173L385 426Q356 436 326 436Q277 436 246 399Z" />
<glyph unicode="b" glyph-name="b" horiz-adv-x="581" d="M276 515T315 531T392 548Q472 548 513 495T555 341Q555 253 527 173T430 38T245 -17Q141 -17 28 27L128 742L285 759L247 486Q276 515 315 531ZM279 432T231 371L195 111Q228 98 262 98Q308 98 338 135T382
227T396 338Q396 390 379 411T332 432Q279 432 231 371Z" />
<glyph unicode="c" glyph-name="c" horiz-adv-x="469" d="M427 548T493 480L417 390Q395 410 373 418T324 427Q251 427 220 360T189 206Q189 153 210 131T272 108Q299 108 322 117T378 145L435 44Q352 -17 253 -17Q146 -17 86 44T26 212Q26 288 57 365T156 495T323
548Q427 548 493 480Z" />
<glyph unicode="d" glyph-name="d" horiz-adv-x="591" d="M493 0H355L356 76Q328 34 289 9T198 -17Q115 -17 73 39T31 197Q31 278 57 358T142 493T290 548Q325 548 355 534T406 497L443 759L597 742L493 0ZM273 433T245 395T204 302T192 196Q192 143 207 121T251
99Q281 99 309 125T364 197L392 394Q377 414 360 423T319 433Q273 433 245 395Z" />
<glyph unicode="e" glyph-name="e" horiz-adv-x="535" d="M524 302T429 255T184 193Q189 99 278 99Q311 99 343 111T413 148L469 54Q371 -17 258 -17Q145 -17 86 43T27 208Q27 288 57 366T156 496T328 548Q421 548 472 507T524 403Q524 302 429 255ZM282 296T324
326T367 394Q367 415 355 429T313 443Q262 443 232 399T191 289Q282 296 324 326Z" />
<glyph unicode="f" glyph-name="f" horiz-adv-x="346" d="M320 642T302 625T278 570L273 531H396L364 421H257L206 58Q195 -25 162 -78T80 -164T-41 -222L-80 -108Q-19 -85 11 -51T50 52L102 421H23L38 531H117L124 580Q135 660 192 709T342 759Q424 759 490 715L435
620Q402 642 355 642Q320 642 302 625Z" />
<glyph unicode="g" glyph-name="g" horiz-adv-x="575" d="M450 548T551 492L486 41Q466 -99 400 -161T206 -223Q157 -223 104 -207T7 -164L59 -61Q135 -103 203 -103Q255 -103 288 -78T332 18L339 69Q311 37 276 19T200 0Q116 0 71 56T25 206Q25 287 56 365T157
496T333 548Q450 548 551 492ZM280 436T248 401T201 314T186 210Q186 117 248 117Q300 117 353 191L389 426Q359 436 330 436Q280 436 248 401Z" />
<glyph unicode="h" glyph-name="h" horiz-adv-x="568" d="M466 549T498 515T531 420Q531 398 529 386L475 0H319L371 351Q374 366 374 377Q374 401 364 410T336 419Q310 419 280 385T220 292L179 0H24L128 742L285 758L239 440Q268 489 314 518T408 548Q466 549 498 515Z" />
<glyph unicode="i" glyph-name="i" horiz-adv-x="278" d="M24 0L98 531H254L180 0H24ZM250 811T272 789T295 731Q295 690 266 661T192 631Q155 632 133 654T110 711Q110 753 139 782T212 811Q250 811 272 789Z" />
<glyph unicode="j" glyph-name="j" horiz-adv-x="273" d="M172 -25T139 -78T56 -164T-65 -222L-104 -108Q-43 -85 -13 -51T27 52L94 531H249L183 58Q172 -25 139 -78ZM246 811T268 789T291 731Q291 690 262 661T188 631Q151 632 129 654T106 711Q106 753 135 782T208
811Q246 811 268 789Z" />
<glyph unicode="k" glyph-name="k" horiz-adv-x="567" d="M320 548T420 548Q485 548 523 513T562 423Q562 293 418 236L517 0H346L250 256Q334 283 369 316T404 394Q404 416 392 427T358 438Q326 438 292 411T226 329L180 0H24L128 742L285 759L244 462Q320 548 420 548Z" />
<glyph unicode="l" glyph-name="l" horiz-adv-x="289" d="M193 141T193 133Q193 119 198 114T215 108Q223 108 241 114L259 3Q214 -17 159 -17Q100 -17 68 14T36 104Q36 115 38 139L123 742L280 759L194 145Q193 141 193 133Z" />
<glyph unicode="m" glyph-name="m" horiz-adv-x="831" d="M731 549T763 515T795 420Q795 404 792 386L738 0H583L635 351Q638 366 638 377Q638 401 629 410T604 419Q579 419 552 387T500 299L458 0H303L355 351Q358 366 358 377Q358 401 349 410T324 419Q299 419
271 385T220 294L179 0H24L98 531H233L230 445Q263 494 305 521T395 548Q443 548 474 523T513 449Q544 495 587 521T675 548Q731 549 763 515Z" />
<glyph unicode="n" glyph-name="n" horiz-adv-x="568" d="M466 549T498 515T531 420Q531 398 529 386L475 0H319L371 351Q374 366 374 377Q374 401 364 410T336 419Q310 419 280 385T220 292L179 0H24L98 531H233L230 438Q264 488 312 518T408 548Q466 549 498 515Z" />
<glyph unicode="o" glyph-name="o" horiz-adv-x="574" d="M429 549T487 489T546 324Q546 243 517 165T422 35T250 -17Q145 -17 87 43T28 209Q28 291 57 368T152 497T324 548Q429 549 487 489ZM244 432T216 358T187 199Q187 147 205 123T261 99Q331 100 359 175T387
335Q387 385 369 408T313 432Q244 432 216 358Z" />
<glyph unicode="p" glyph-name="p" horiz-adv-x="587" d="M472 548T513 495T555 341Q555 256 527 174T436 38T274 -17Q221 -17 177 -3L150 -206L-7 -223L98 531H235V472Q306 548 392 548Q472 548 513 495ZM279 432T231 371L195 111Q228 98 262 98Q308 98 338 135T382
227T396 338Q396 390 379 411T332 432Q279 432 231 371Z" />
<glyph unicode="q" glyph-name="q" horiz-adv-x="573" d="M447 548T549 492L451 -206L291 -223L333 47Q315 22 278 3T196 -17Q113 -17 69 39T24 194Q24 280 56 361T157 495T331 548Q447 548 549 492ZM278 436T246 399T200 307T185 195Q185 142 202 121T249 99Q276
99 300 117T349 173L387 426Q357 436 327 436Q278 436 246 399Z" />
<glyph unicode="r" glyph-name="r" horiz-adv-x="392" d="M407 546T434 538L389 386Q361 393 345 393Q299 393 269 355T214 246L179 0H24L98 531H233L231 432Q257 486 298 516T381 546Q407 546 434 538Z" />
<glyph unicode="s" glyph-name="s" horiz-adv-x="473" d="M327 548T379 530T465 480L395 392Q371 413 338 424T273 435Q201 435 201 392Q201 378 209 369T238 352T303 329Q372 307 406 268T441 167Q441 116 415 75T336 8T203 -17Q134 -17 76 7T-18 70L63 154Q89
128 125 112T203 96Q244 96 265 111T286 149Q286 167 278 177T248 197T181 223Q46 269 46 378Q46 424 72 463T150 525T273 548Q327 548 379 530Z" />
<glyph unicode="t" glyph-name="t" horiz-adv-x="376" d="M215 156T215 151Q215 128 224 119T253 109Q283 109 313 126L355 22Q322 3 283 -7T209 -17Q134 -17 96 20T58 131Q58 152 61 176L96 421H23L38 531H118L151 649L285 664L266 531H386L355 421H251L217 176Q215
156 215 151Z" />
<glyph unicode="u" glyph-name="u" horiz-adv-x="562" d="M330 0L333 79Q259 -17 165 -17Q102 -17 70 17T37 114Q37 125 39 151L93 531H248L199 177Q197 157 197 151Q197 128 206 119T234 109Q283 109 336 195L383 531H538L464 0H330Z" />
<glyph unicode="v" glyph-name="v" horiz-adv-x="503" d="M124 0L31 531H198L234 120L383 531H547L311 0H124Z" />
<glyph unicode="w" glyph-name="w" horiz-adv-x="739" d="M404 0L389 390L265 0H80L43 531H199L196 118L335 531H487L501 118L621 531H770L588 0H404Z" />
<glyph unicode="x" glyph-name="x" horiz-adv-x="502" d="M476 0H304L239 195L121 0H-48L159 283L42 531H214L264 361L358 531H525L348 279L476 0Z" />
<glyph unicode="y" glyph-name="y" horiz-adv-x="507" d="M225 -209T-13 -222L-17 -111Q60 -102 99 -77T167 1L116 0L31 531H193L228 102L388 531H551L316 -2Q225 -209 -13 -222Z" />
<glyph unicode="z" glyph-name="z" horiz-adv-x="449" d="M184 120H413L382 0H-26L-11 112L256 412H52L69 531H465L450 420L184 120Z" />
<glyph unicode="{" glyph-name="braceleft" horiz-adv-x="314" d="M313 730T295 716T272 668L246 482Q238 419 210 391T126 348Q168 339 190 317T212 249Q212 227 210 214L183 28Q182 22 182 11Q182 -12 196 -21T247 -30L235 -140Q131 -140 83 -107T35 -6Q35 3
37 27L62 206Q65 224 65 238Q65 264 53 274T8 285L26 414Q63 414 80 433T104 498L129 677Q137 735 160 770T233 822T370 840L356 730Q313 730 295 716Z" />
<glyph unicode="|" glyph-name="bar" horiz-adv-x="366" d="M59 -105L187 810H332L204 -105H59Z" />
<glyph unicode="}" glyph-name="braceright" horiz-adv-x="314" d="M24 -30T42 -16T65 32L91 218Q100 281 128 309T212 352Q169 362 148 384T126 452Q126 474 128 486L154 672Q156 679 156 689Q156 712 142 721T90 730L102 840Q207 840 255 807T303 706Q303 691
300 673L275 494Q273 470 273 463Q273 437 285 426T330 415L311 286Q274 286 257 267T234 202L209 23Q200 -35 177 -70T105 -122T-32 -140L-19 -30Q24 -30 42 -16Z" />
<glyph unicode="~" glyph-name="asciitilde" horiz-adv-x="504" d="M226 410T248 401T296 373Q313 361 323 356T347 350Q372 350 388 363T421 404L502 355Q468 300 427 266T329 232Q295 232 273 242T224 270Q209 282 198 287T173 293Q148 293 133 279T98 236L18
285Q53 341 94 375T192 410Q226 410 248 401Z" />
<glyph unicode="&#xa0;" glyph-name="nbspace" horiz-adv-x="227" />
<glyph unicode="&#xa1;" glyph-name="exclamdown" horiz-adv-x="229" d="M182 510T204 487T227 429Q227 389 198 359T128 329Q93 329 71 352T49 411Q49 450 78 480T148 510Q182 510 204 487ZM-32 -205L50 235H176L133 -205H-32Z" />
<glyph unicode="&#xa2;" glyph-name="cent" horiz-adv-x="469" d="M366 -7T288 -15L267 -161H154L177 -7Q105 12 66 69T26 212Q26 278 50 347T125 469T254 541L275 691H386L366 545Q440 533 493 480L417 390Q395 410 373 418T324 427Q251 427 220 360T189 206Q189
153 210 131T272 108Q299 108 322 117T378 145L435 44Q366 -7 288 -15Z" />
<glyph unicode="&#xa3;" glyph-name="sterling" horiz-adv-x="541" d="M501 690T564 589L463 523Q448 550 429 561T381 572Q304 572 292 486L279 393H461L449 311H268L258 239Q252 194 235 167T179 119L480 120L446 0H-10L4 114Q42 125 62 140T91 177T104 235L115
311H48L60 393H126L140 490Q152 582 212 636T373 690Q501 690 564 589Z" />
<glyph unicode="&#xa4;" glyph-name="currency" horiz-adv-x="560" d="M501 276T468 223L543 148L474 78L396 154Q346 125 280 125Q215 125 165 154L87 78L17 148L94 224Q61 277 61 342Q61 405 93 458L17 536L87 606L165 528Q217 558 280 558Q344 558 396 528L474
606L543 536L468 460Q501 407 501 342Q501 276 468 223ZM328 231T352 260T377 342Q377 395 353 423T281 452Q233 452 208 423T183 342Q183 289 208 260T281 231Q328 231 352 260Z" />
<glyph unicode="&#xa5;" glyph-name="yen" horiz-adv-x="559" d="M500 352L489 270H358L348 198H479L467 116H337L320 0H165L182 116H51L63 198H193L203 270H73L84 352H180L50 676H212L298 395L461 676H624L405 352H500Z" />
<glyph unicode="&#xa6;" glyph-name="brokenbar" horiz-adv-x="367" d="M135 443L187 810H332L281 443H135ZM59 -105L110 262H256L204 -105H59Z" />
<glyph unicode="&#xa7;" glyph-name="section" horiz-adv-x="540" d="M428 438T462 405T496 318Q496 271 470 238T394 177Q418 157 429 134T441 81Q441 37 417 0T340 -60T206 -83Q151 -83 103 -67T19 -25L80 67Q139 26 205 26Q291 26 291 76Q291 92 283 102T253
123T187 148Q122 169 88 202T54 289Q54 371 156 427Q111 468 111 523Q111 600 173 644T338 689Q391 689 441 672T529 628L465 541Q407 580 342 580Q299 580 280 566T260 529Q260 514 268 504T298 484T362 459Q428 438 462 405ZM279 239T318 222Q358 259 358 291Q358
312 340 328T280 361Q257 368 227 381Q194 348 194 314Q194 293 208 277T257 247Q279 239 318 222Z" />
<glyph unicode="&#xa8;" glyph-name="dieresis" horiz-adv-x="446" d="M212 799T232 779T253 729Q253 693 227 667T164 641Q133 641 113 661T93 713Q93 748 119 773T181 799Q212 799 232 779ZM441 799T461 779T481 729Q481 693 455 667T392 641Q361 641 341 661T321
713Q321 748 347 773T409 799Q441 799 461 779Z" />
<glyph unicode="&#xa9;" glyph-name="copyright" horiz-adv-x="810" d="M499 766T576 722T698 601T743 432Q743 340 698 264T576 144T406 99Q313 99 236 143T113 264T67 432Q67 524 112 600T235 721T406 766Q499 766 576 722ZM336 687T280 653T191 561T159 432Q159
362 191 304T279 213T406 179Q475 179 531 212T620 304T652 432Q652 502 620 560T532 653T406 687Q336 687 280 653ZM445 630T478 617T539 579L490 518Q472 532 456 537T419 543Q386 543 366 517T345 433Q345 324 418 324Q460 324 498 353L542 289Q486 236 409
236Q327 236 279 287T231 433Q231 493 254 537T317 606T408 630Q445 630 478 617Z" />
<glyph unicode="&#xaa;" glyph-name="ordfeminine" horiz-adv-x="490" d="M379 693T419 664T459 575Q459 558 456 540L437 403Q435 393 435 387Q435 366 457 358L418 267Q380 269 356 282T318 323Q270 264 185 264Q128 264 95 298T62 383Q62 445 112 486T280 528H318L319
538L321 558Q321 578 308 585T264 593Q220 593 151 571L130 663Q171 678 214 685T294 693Q379 693 419 664ZM206 453T206 397Q206 364 238 364Q272 364 300 395L308 453H286Q206 453 206 397ZM425 122L408 0H6L22 122H425Z" />
<glyph unicode="&#xab;" glyph-name="guillemotleft" horiz-adv-x="618" d="M192 285L289 78L186 13L30 234L43 334L258 556L348 491L192 285ZM460 285L557 78L454 13L298 234L311 334L526 556L616 491L460 285Z" />
<glyph unicode="&#xac;" glyph-name="logicalnot" horiz-adv-x="520" d="M324 114L346 267H47L64 390H491L452 114H324Z" />
<glyph unicode="&#xad;" glyph-name="softhyphen" horiz-adv-x="398" d="M371 374L354 252H40L57 374H371Z" />
<glyph unicode="&#xae;" glyph-name="registered" horiz-adv-x="637" d="M396 759T459 723T557 624T593 484Q593 408 558 346T459 248T319 212Q242 212 179 247T80 345T44 484Q44 561 80 624T179 723T319 759Q396 759 459 723ZM376 279T420 305T490 379T515 484Q515
543 490 590T421 665T319 692Q262 692 218 665T148 590T122 484Q122 426 147 379T217 306T319 279Q376 279 420 305ZM432 519T417 499T374 469L448 352H366L308 454H286V352H215V634H299Q432 634 432 546Q432 519 417 499ZM316 512Q359 512 359 548Q359 580 314
580H286V512H316Z" />
<glyph unicode="&#xaf;" glyph-name="overscore" horiz-adv-x="356" d="M97 765H398L383 655H82L97 765Z" />
<glyph unicode="&#xb0;" glyph-name="degree" horiz-adv-x="511" d="M190 369T155 387T97 439T75 518Q75 576 104 620T179 687T272 711Q313 711 349 693T406 642T428 563Q428 505 399 461T324 393T231 369Q190 369 155 387ZM270 462T292 484T321 544Q322 550 322
560Q322 588 307 604T266 619Q234 619 211 597T182 537L181 522Q181 494 196 478T238 462Q270 462 292 484Z" />
<glyph unicode="&#xb1;" glyph-name="plusminus" horiz-adv-x="520" d="M443 123L426 1H11L28 123H443ZM501 465L484 343H335L313 187H184L206 343H58L75 465H223L244 621H374L352 465H501Z" />
<glyph unicode="&#xb2;" glyph-name="twosuperior" horiz-adv-x="390" d="M287 752T324 720T361 638Q361 632 359 620Q355 589 339 562T283 500T168 409L339 410L315 321H22L32 405Q122 478 161 512T218 570T239 617Q242 639 231 651T198 664Q175 664 157 654T117
620L53 676Q86 711 128 731T218 752Q287 752 324 720Z" />
<glyph unicode="&#xb3;" glyph-name="threesuperior" horiz-adv-x="390" d="M289 752T325 725T362 653Q362 644 361 639Q350 565 255 543Q297 540 322 518T348 454Q348 416 326 383T261 330T159 309Q59 309 10 378L79 435Q112 397 159 397Q190 397 210 414T230
463Q230 483 216 492T172 501H132L157 581H181Q237 581 245 627Q248 645 236 655T201 665Q156 665 112 629L61 694Q129 752 221 752Q289 752 325 725Z" />
<glyph unicode="&#xb4;" glyph-name="acute" horiz-adv-x="330" d="M121 622L90 703L321 835L366 717L121 622Z" />
<glyph unicode="&#xb5;" glyph-name="uni00B5" horiz-adv-x="573" d="M485 126T485 78Q485 41 491 -1L347 -16Q341 4 339 22T337 68Q287 -8 219 -8Q174 -8 154 14Q161 -14 161 -41Q161 -70 154 -115L141 -205L-7 -220L98 531H253L201 161L200 145Q200 104 240
102Q293 102 336 167L386 531H541L492 181Q485 126 485 78Z" />
<glyph unicode="&#xb6;" glyph-name="paragraph" horiz-adv-x="778" d="M596 -205L458 -223L571 583H480L370 -205L232 -223L300 263Q198 266 146 315T93 445Q93 469 95 481Q109 582 186 639T389 693L388 692L390 693H722L596 -205Z" />
<glyph unicode="&#xb7;" glyph-name="middot" horiz-adv-x="240" d="M169 398T191 375T214 318Q214 278 185 248T115 218Q80 218 58 241T36 299Q36 339 65 368T135 398Q169 398 191 375Z" />
<glyph unicode="&#xb8;" glyph-name="cedilla" horiz-adv-x="311" d="M181 -53T204 -76T227 -136Q227 -166 211 -195T159 -243T66 -262Q3 -262 -42 -230L3 -159Q29 -176 61 -176Q85 -176 100 -168T115 -142Q115 -126 96 -119T29 -112L61 16H147L136 -48Q181 -53 204 -76Z" />
<glyph unicode="&#xb9;" glyph-name="onesuperior" horiz-adv-x="390" d="M149 321L193 632L96 575L54 653L217 742H322L263 321H149Z" />
<glyph unicode="&#xba;" glyph-name="ordmasculine" horiz-adv-x="490" d="M387 693T437 648T488 518Q488 459 466 401T391 304T253 264Q164 264 113 310T62 439Q62 499 85 557T161 654T298 693Q387 693 437 648ZM244 591T225 543T205 433Q205 398 217 382T257
366Q307 366 326 415T345 526Q345 561 333 576T294 591Q244 591 225 543ZM433 123L416 0H0L18 123H433Z" />
<glyph unicode="&#xbb;" glyph-name="guillemotright" horiz-adv-x="616" d="M312 234L96 13L7 78L164 285L66 491L169 556L326 334L312 234ZM577 234L361 13L272 78L429 285L331 491L434 556L591 334L577 234Z" />
<glyph unicode="&#xbc;" glyph-name="onequarter" horiz-adv-x="940" d="M143 272L186 583L89 526L47 604L211 694H316L257 272H143ZM264 -85L179 -40L695 759L780 714L264 -85ZM844 84L833 0H723L735 84H546L557 162L713 431L806 395L677 170H748L782 265H870L856
170H902L889 84H844Z" />
<glyph unicode="&#xbd;" glyph-name="onehalf" horiz-adv-x="940" d="M143 272L186 583L89 526L47 604L211 694H316L257 272H143ZM264 -85L179 -40L695 759L780 714L264 -85ZM828 431T865 399T902 317Q902 311 900 299Q896 268 880 241T824 179T709 88L880 89L856
0H563L573 84Q663 157 702 191T759 249T780 296Q783 318 772 330T739 343Q716 343 698 333T658 299L594 355Q627 390 669 410T759 431Q828 431 865 399Z" />
<glyph unicode="&#xbe;" glyph-name="threequarters" horiz-adv-x="940" d="M281 703T318 676T355 604Q355 595 354 591Q349 554 323 530T248 494Q290 492 315 470T341 405Q341 367 319 334T255 281T153 260Q101 260 64 278T3 329L73 387Q104 348 152 348Q183
348 203 365T223 414Q223 434 209 443T165 452H126L150 532H174Q230 532 238 578Q241 596 229 606T194 617Q150 617 105 580L54 645Q122 703 214 703Q281 703 318 676ZM264 -85L179 -40L695 759L780 714L264 -85ZM844 84L833 0H723L735 84H546L557 162L713 431L806
395L677 170H748L782 265H870L856 170H902L889 84H844Z" />
<glyph unicode="&#xbf;" glyph-name="questiondown" horiz-adv-x="472" d="M224 328T202 351T179 408Q179 448 208 478T278 508Q313 508 335 485T358 427Q358 387 328 358T258 328Q224 328 202 351ZM68 -223T18 -181T-33 -75Q-33 -24 -14 10T32 64T103 108Q137
127 154 139T184 169T197 212Q197 222 194 234L332 255Q339 233 339 206Q339 161 322 131T281 81T217 41Q173 16 153 -3T132 -54Q132 -76 147 -87T191 -98Q253 -98 317 -36L405 -117Q304 -223 163 -223Q68 -223 18 -181Z" />
<glyph unicode="&#xc0;" glyph-name="Agrave" horiz-adv-x="581" d="M172 149L117 0H-51L253 693H448L557 0H387L373 149H172ZM332 583L216 268H362L332 583ZM469 748L236 839L301 958L514 828L469 748Z" />
<glyph unicode="&#xc1;" glyph-name="Aacute" horiz-adv-x="581" d="M172 149L117 0H-51L253 693H448L557 0H387L373 149H172ZM332 583L216 268H362L332 583ZM271 747L232 827L455 957L512 838L271 747Z" />
<glyph unicode="&#xc2;" glyph-name="Acircumflex" horiz-adv-x="581" d="M172 149L117 0H-51L253 693H448L557 0H387L373 149H172ZM332 583L216 268H362L332 583ZM237 755L186 820L343 949H438L559 820L498 755L379 839L237 755Z" />
<glyph unicode="&#xc3;" glyph-name="Atilde" horiz-adv-x="581" d="M172 149L117 0H-51L253 693H448L557 0H387L373 149H172ZM332 583L216 268H362L332 583ZM404 761T390 767T354 788Q352 790 344 795T328 803T315 806Q297 806 284 795T254 760L181 802Q208 854
244 886T322 918Q344 918 358 912T393 891Q405 882 413 878T430 873Q446 873 459 884T489 918L563 877Q536 824 499 793T423 761Q404 761 390 767Z" />
<glyph unicode="&#xc4;" glyph-name="Adieresis" horiz-adv-x="581" d="M172 149L117 0H-51L253 693H448L557 0H387L373 149H172ZM332 583L216 268H362L332 583ZM297 925T317 905T338 855Q338 819 312 793T249 767Q218 767 198 787T178 839Q178 874 204 899T266
925Q297 925 317 905ZM526 925T546 905T566 855Q566 819 540 793T477 767Q446 767 426 787T406 839Q406 874 432 899T494 925Q526 925 546 905Z" />
<glyph unicode="&#xc5;" glyph-name="Aring" horiz-adv-x="581" d="M172 149L117 0H-51L253 693H448L557 0H387L373 149H172ZM332 583L216 268H362L332 583ZM446 993T479 961T512 878Q512 840 492 806T437 752T358 731Q301 731 269 763T236 846Q236 885 255 918T310
972T389 993Q446 993 479 961ZM360 913T346 899T328 859Q327 855 327 849Q327 831 337 822T365 812Q386 812 401 826T420 866Q423 889 413 901T382 913Q360 913 346 899Z" />
<glyph unicode="&#xc6;" glyph-name="AE" horiz-adv-x="832" d="M535 408H775L760 293H542L553 118H780L763 0H409L402 149H186L116 0H-58L299 693H824L791 576H524L535 408ZM385 573L241 268H397L385 573Z" />
<glyph unicode="&#xc7;" glyph-name="Ccedilla" horiz-adv-x="565" d="M490 35T438 12T326 -16L320 -48Q365 -53 388 -76T411 -136Q411 -166 395 -195T343 -243T250 -262Q187 -262 142 -230L187 -159Q215 -176 246 -176Q269 -176 284 -168T299 -142Q299 -125 280
-119T213 -112L238 -11Q144 8 92 79T39 269Q39 373 76 474T193 643T395 710Q526 710 600 628L511 540Q485 565 459 577T398 589Q330 589 287 538T225 413T206 269Q206 188 238 149T328 110Q365 110 397 125T469 169L531 71Q490 35 438 12Z" />
<glyph unicode="&#xc8;" glyph-name="Egrave" horiz-adv-x="517" d="M269 576L245 410H455L440 295H230L205 118H462L446 0H27L124 693H543L509 576H269ZM453 748L220 839L285 958L498 828L453 748Z" />
<glyph unicode="&#xc9;" glyph-name="Eacute" horiz-adv-x="517" d="M269 576L245 410H455L440 295H230L205 118H462L446 0H27L124 693H543L509 576H269ZM255 747L216 827L439 957L496 838L255 747Z" />
<glyph unicode="&#xca;" glyph-name="Ecircumflex" horiz-adv-x="517" d="M269 576L245 410H455L440 295H230L205 118H462L446 0H27L124 693H543L509 576H269ZM222 755L171 820L328 949H423L544 820L483 755L364 839L222 755Z" />
<glyph unicode="&#xcb;" glyph-name="Edieresis" horiz-adv-x="517" d="M269 576L245 410H455L440 295H230L205 118H462L446 0H27L124 693H543L509 576H269ZM282 925T302 905T323 855Q323 819 297 793T234 767Q203 767 183 787T163 839Q163 874 189 899T251 925Q282
925 302 905ZM511 925T531 905T551 855Q551 819 525 793T462 767Q431 767 411 787T391 839Q391 874 417 899T479 925Q511 925 531 905Z" />
<glyph unicode="&#xcc;" glyph-name="Igrave" horiz-adv-x="290" d="M27 0L124 693H286L189 0H27ZM580 748L347 839L412 958L625 828L580 748Z" />
<glyph unicode="&#xcd;" glyph-name="Iacute" horiz-adv-x="290" d="M27 0L124 693H286L189 0H27ZM382 747L343 827L566 957L623 838L382 747Z" />
<glyph unicode="&#xce;" glyph-name="Icircumflex" horiz-adv-x="290" d="M27 0L124 693H286L189 0H27ZM348 755L297 820L454 949H549L670 820L609 755L490 839L348 755Z" />
<glyph unicode="&#xcf;" glyph-name="Idieresis" horiz-adv-x="290" d="M27 0L124 693H286L189 0H27ZM408 925T428 905T449 855Q449 819 423 793T360 767Q329 767 309 787T289 839Q289 874 315 899T377 925Q408 925 428 905ZM637 925T657 905T677 855Q677 819
651 793T588 767Q557 767 537 787T517 839Q517 874 543 899T605 925Q637 925 657 905Z" />
<glyph unicode="&#xd0;" glyph-name="Eth" horiz-adv-x="652" d="M464 694T550 636T636 431Q636 241 543 121T243 0H37L79 304H20L33 402H93L134 694H322Q464 694 550 636ZM377 119T423 212T470 430Q470 514 435 544T332 575H278L254 402H390L377 304H240L215
119H267Q377 119 423 212Z" />
<glyph unicode="&#xd1;" glyph-name="Ntilde" horiz-adv-x="653" d="M348 0L220 557Q221 551 221 537Q222 519 222 480Q222 372 205 246L170 0H27L124 693H327L457 136Q454 190 454 236Q454 316 467 421L506 693H649L552 0H348ZM444 761T430 767T394 788Q392 790
384 795T368 803T355 806Q337 806 324 795T294 760L221 802Q248 854 284 886T362 918Q384 918 398 912T433 891Q445 882 453 878T470 873Q486 873 499 884T529 918L603 877Q576 824 539 793T463 761Q444 761 430 767Z" />
<glyph unicode="&#xd2;" glyph-name="Ograve" horiz-adv-x="681" d="M527 710T596 636T665 426Q665 321 630 220T514 51T304 -17Q177 -17 108 57T39 267Q39 371 74 472T191 641T401 710Q527 710 596 636ZM319 590T278 534T221 401T205 249Q205 103 315 103Q385
103 426 159T483 293T499 447Q499 521 472 555T389 590Q319 590 278 534ZM520 748L287 839L352 958L565 828L520 748Z" />
<glyph unicode="&#xd3;" glyph-name="Oacute" horiz-adv-x="681" d="M527 710T596 636T665 426Q665 321 630 220T514 51T304 -17Q177 -17 108 57T39 267Q39 371 74 472T191 641T401 710Q527 710 596 636ZM319 590T278 534T221 401T205 249Q205 103 315 103Q385
103 426 159T483 293T499 447Q499 521 472 555T389 590Q319 590 278 534ZM322 747L283 827L506 957L563 838L322 747Z" />
<glyph unicode="&#xd4;" glyph-name="Ocircumflex" horiz-adv-x="681" d="M527 710T596 636T665 426Q665 321 630 220T514 51T304 -17Q177 -17 108 57T39 267Q39 371 74 472T191 641T401 710Q527 710 596 636ZM319 590T278 534T221 401T205 249Q205 103 315 103Q385
103 426 159T483 293T499 447Q499 521 472 555T389 590Q319 590 278 534ZM288 755L237 820L394 949H489L610 820L549 755L430 839L288 755Z" />
<glyph unicode="&#xd5;" glyph-name="Otilde" horiz-adv-x="681" d="M527 710T596 636T665 426Q665 321 630 220T514 51T304 -17Q177 -17 108 57T39 267Q39 371 74 472T191 641T401 710Q527 710 596 636ZM319 590T278 534T221 401T205 249Q205 103 315 103Q385
103 426 159T483 293T499 447Q499 521 472 555T389 590Q319 590 278 534ZM455 761T441 767T405 788Q403 790 395 795T379 803T366 806Q348 806 335 795T305 760L232 802Q259 854 295 886T373 918Q395 918 409 912T444 891Q456 882 464 878T481 873Q497 873 510
884T540 918L614 877Q587 824 550 793T474 761Q455 761 441 767Z" />
<glyph unicode="&#xd6;" glyph-name="Odieresis" horiz-adv-x="681" d="M527 710T596 636T665 426Q665 321 630 220T514 51T304 -17Q177 -17 108 57T39 267Q39 371 74 472T191 641T401 710Q527 710 596 636ZM319 590T278 534T221 401T205 249Q205 103 315 103Q385
103 426 159T483 293T499 447Q499 521 472 555T389 590Q319 590 278 534ZM349 925T369 905T390 855Q390 819 364 793T301 767Q270 767 250 787T230 839Q230 874 256 899T318 925Q349 925 369 905ZM578 925T598 905T618 855Q618 819 592 793T529 767Q498 767 478
787T458 839Q458 874 484 899T546 925Q578 925 598 905Z" />
<glyph unicode="&#xd7;" glyph-name="multiply" horiz-adv-x="509" d="M343 306L444 190L348 103L249 221L118 103L43 190L176 306L76 423L173 510L271 392L402 510L477 423L343 306Z" />
<glyph unicode="&#xd8;" glyph-name="Oslash" horiz-adv-x="681" d="M612 630T638 570T665 426Q665 321 630 220T514 51T304 -17Q277 -17 253 -14L200 -134L82 -102L141 29Q91 64 65 124T39 267Q39 371 74 472T191 641T401 710Q426 710 450 707L504 828L621 795L562
665Q612 630 638 570ZM319 590T278 534T219 400T202 249Q202 176 221 145L415 589Q407 590 389 590Q319 590 278 534ZM385 103T426 159T484 294T501 447Q501 518 483 549L290 104L315 103Q385 103 426 159Z" />
<glyph unicode="&#xd9;" glyph-name="Ugrave" horiz-adv-x="641" d="M566 119T489 51T283 -17Q166 -17 106 38T46 187Q46 210 49 232L114 693H275L211 235Q208 214 208 195Q208 149 229 128T295 105Q350 105 380 138T421 238L485 693H647L582 229Q566 119 489
51ZM499 748L266 839L331 958L544 828L499 748Z" />
<glyph unicode="&#xda;" glyph-name="Uacute" horiz-adv-x="641" d="M566 119T489 51T283 -17Q166 -17 106 38T46 187Q46 210 49 232L114 693H275L211 235Q208 214 208 195Q208 149 229 128T295 105Q350 105 380 138T421 238L485 693H647L582 229Q566 119 489
51ZM301 747L262 827L485 957L542 838L301 747Z" />
<glyph unicode="&#xdb;" glyph-name="Ucircumflex" horiz-adv-x="641" d="M566 119T489 51T283 -17Q166 -17 106 38T46 187Q46 210 49 232L114 693H275L211 235Q208 214 208 195Q208 149 229 128T295 105Q350 105 380 138T421 238L485 693H647L582 229Q566 119
489 51ZM267 755L216 820L373 949H468L589 820L528 755L409 839L267 755Z" />
<glyph unicode="&#xdc;" glyph-name="Udieresis" horiz-adv-x="641" d="M566 119T489 51T283 -17Q166 -17 106 38T46 187Q46 210 49 232L114 693H275L211 235Q208 214 208 195Q208 149 229 128T295 105Q350 105 380 138T421 238L485 693H647L582 229Q566 119 489
51ZM327 925T347 905T368 855Q368 819 342 793T279 767Q248 767 228 787T208 839Q208 874 234 899T296 925Q327 925 347 905ZM556 925T576 905T596 855Q596 819 570 793T507 767Q476 767 456 787T436 839Q436 874 462 899T524 925Q556 925 576 905Z" />
<glyph unicode="&#xdd;" glyph-name="Yacute" horiz-adv-x="584" d="M336 0H174L211 259L53 693H225L309 388L478 693H652L372 260L336 0ZM273 747L234 827L457 957L514 838L273 747Z" />
<glyph unicode="&#xde;" glyph-name="Thorn" horiz-adv-x="591" d="M452 585T519 536T586 386Q586 320 557 258T459 155T279 114H204L188 0H27L124 693H285L270 585H328Q452 585 519 536ZM355 233T387 278T419 382Q419 468 313 468H254L221 233H279Q355 233 387 278Z" />
<glyph unicode="&#xdf;" glyph-name="germandbls" horiz-adv-x="595" d="M421 405T433 391T472 354Q501 330 520 311T552 260T566 186Q566 137 542 90T468 13T342 -17Q308 -17 276 -9T219 13L277 117Q303 104 330 104Q370 104 388 127T406 178Q406 208 392 228T346
276Q313 306 297 329T281 388Q281 431 297 458T345 514Q372 539 384 557T396 604Q396 625 383 636T346 647Q269 647 254 536L187 58Q176 -25 143 -78T61 -164T-60 -222L-99 -108Q-39 -85 -9 -54T29 38L99 535Q113 641 180 700T359 759Q448 759 496 719T545 615Q545
573 526 548T471 493Q445 472 433 458T421 423Q421 405 433 391Z" />
<glyph unicode="&#xe0;" glyph-name="agrave" horiz-adv-x="572" d="M446 548T548 492L497 152Q495 136 495 130Q495 112 502 103T523 88L479 -14Q432 -10 400 11T356 74Q292 -17 199 -17Q114 -17 70 39T25 194Q25 278 56 359T156 494T330 548Q446 548 548 492ZM277
436T246 399T200 307T186 195Q186 142 202 121T247 99Q299 99 347 173L385 426Q356 436 326 436Q277 436 246 399ZM460 622L240 717L317 835L512 702L460 622Z" />
<glyph unicode="&#xe1;" glyph-name="aacute" horiz-adv-x="572" d="M446 548T548 492L497 152Q495 136 495 130Q495 112 502 103T523 88L479 -14Q432 -10 400 11T356 74Q292 -17 199 -17Q114 -17 70 39T25 194Q25 278 56 359T156 494T330 548Q446 548 548 492ZM277
436T246 399T200 307T186 195Q186 142 202 121T247 99Q299 99 347 173L385 426Q356 436 326 436Q277 436 246 399ZM250 622L219 703L450 835L495 717L250 622Z" />
<glyph unicode="&#xe2;" glyph-name="acircumflex" horiz-adv-x="572" d="M446 548T548 492L497 152Q495 136 495 130Q495 112 502 103T523 88L479 -14Q432 -10 400 11T356 74Q292 -17 199 -17Q114 -17 70 39T25 194Q25 278 56 359T156 494T330 548Q446 548 548
492ZM277 436T246 399T200 307T186 195Q186 142 202 121T247 99Q299 99 347 173L385 426Q356 436 326 436Q277 436 246 399ZM334 822H429L549 685L486 620L368 712L226 620L176 685L334 822Z" />
<glyph unicode="&#xe3;" glyph-name="atilde" horiz-adv-x="572" d="M446 548T548 492L497 152Q495 136 495 130Q495 112 502 103T523 88L479 -14Q432 -10 400 11T356 74Q292 -17 199 -17Q114 -17 70 39T25 194Q25 278 56 359T156 494T330 548Q446 548 548 492ZM277
436T246 399T200 307T186 195Q186 142 202 121T247 99Q299 99 347 173L385 426Q356 436 326 436Q277 436 246 399ZM400 635T385 642T350 662Q325 680 310 680Q292 680 279 669T249 634L177 676Q204 728 240 760T317 792Q339 792 354 785T389 765Q411 747 425 747Q441
747 454 757T485 792L558 751Q530 698 494 667T419 635Q400 635 385 642Z" />
<glyph unicode="&#xe4;" glyph-name="adieresis" horiz-adv-x="572" d="M446 548T548 492L497 152Q495 136 495 130Q495 112 502 103T523 88L479 -14Q432 -10 400 11T356 74Q292 -17 199 -17Q114 -17 70 39T25 194Q25 278 56 359T156 494T330 548Q446 548 548
492ZM277 436T246 399T200 307T186 195Q186 142 202 121T247 99Q299 99 347 173L385 426Q356 436 326 436Q277 436 246 399ZM287 799T307 779T328 729Q328 693 302 667T239 641Q208 641 188 661T168 713Q168 748 194 773T256 799Q287 799 307 779ZM516 799T536
779T556 729Q556 693 530 667T467 641Q436 641 416 661T396 713Q396 748 422 773T484 799Q516 799 536 779Z" />
<glyph unicode="&#xe5;" glyph-name="aring" horiz-adv-x="572" d="M446 548T548 492L497 152Q495 136 495 130Q495 112 502 103T523 88L479 -14Q432 -10 400 11T356 74Q292 -17 199 -17Q114 -17 70 39T25 194Q25 278 56 359T156 494T330 548Q446 548 548 492ZM277
436T246 399T200 307T186 195Q186 142 202 121T247 99Q299 99 347 173L385 426Q356 436 326 436Q277 436 246 399ZM443 867T475 835T508 752Q508 713 489 680T434 626T355 605Q299 605 266 637T233 720Q233 759 252 792T307 846T386 867Q443 867 475 835ZM357 787T343
773T324 732L323 723Q323 705 333 696T362 686Q383 686 397 700T416 740Q417 744 417 750Q417 768 407 777T379 787Q357 787 343 773Z" />
<glyph unicode="&#xe6;" glyph-name="ae" horiz-adv-x="848" d="M357 548T393 530T453 477Q483 509 531 528T633 548Q726 548 777 507T829 403Q829 301 734 255T487 194Q490 141 514 120T583 99Q616 99 648 111T718 148L774 54Q676 -17 563 -17Q495 -17 447 5T371
71Q329 23 281 3T174 -17Q100 -17 57 22T13 127Q13 210 76 266T289 322H348Q356 353 366 375Q362 402 335 417T264 432Q207 432 128 406L103 511Q203 548 299 548Q357 548 393 530ZM567 443T537 400T494 290Q587 298 629 327T672 394Q672 415 660 429T618 443Q567
443 537 400ZM238 231T208 211T178 147Q178 96 231 96Q259 96 284 111T338 158Q333 185 335 231H293Q238 231 208 211Z" />
<glyph unicode="&#xe7;" glyph-name="ccedilla" horiz-adv-x="470" d="M362 -9T277 -16L272 -48Q317 -53 340 -76T363 -137Q363 -166 347 -195T294 -243T202 -262Q169 -262 141 -253T94 -230L139 -160Q166 -176 197 -176Q221 -176 236 -168T251 -142Q251 -125
232 -119T165 -112L190 -11Q112 6 69 64T26 212Q26 288 57 365T156 495T323 548Q427 548 493 480L417 390Q395 410 373 418T324 427Q251 427 220 360T189 206Q189 153 210 131T272 108Q299 108 322 117T378 145L435 44Q362 -9 277 -16Z" />
<glyph unicode="&#xe8;" glyph-name="egrave" horiz-adv-x="535" d="M524 302T429 255T184 193Q189 99 278 99Q311 99 343 111T413 148L469 54Q371 -17 258 -17Q145 -17 86 43T27 208Q27 288 57 366T156 496T328 548Q421 548 472 507T524 403Q524 302 429 255ZM282
296T324 326T367 394Q367 415 355 429T313 443Q262 443 232 399T191 289Q282 296 324 326ZM434 622L214 717L291 835L486 702L434 622Z" />
<glyph unicode="&#xe9;" glyph-name="eacute" horiz-adv-x="535" d="M524 302T429 255T184 193Q189 99 278 99Q311 99 343 111T413 148L469 54Q371 -17 258 -17Q145 -17 86 43T27 208Q27 288 57 366T156 496T328 548Q421 548 472 507T524 403Q524 302 429 255ZM282
296T324 326T367 394Q367 415 355 429T313 443Q262 443 232 399T191 289Q282 296 324 326ZM224 622L193 703L424 835L469 717L224 622Z" />
<glyph unicode="&#xea;" glyph-name="ecircumflex" horiz-adv-x="535" d="M524 302T429 255T184 193Q189 99 278 99Q311 99 343 111T413 148L469 54Q371 -17 258 -17Q145 -17 86 43T27 208Q27 288 57 366T156 496T328 548Q421 548 472 507T524 403Q524 302 429
255ZM282 296T324 326T367 394Q367 415 355 429T313 443Q262 443 232 399T191 289Q282 296 324 326ZM308 822H403L523 685L460 620L342 712L200 620L150 685L308 822Z" />
<glyph unicode="&#xeb;" glyph-name="edieresis" horiz-adv-x="535" d="M524 302T429 255T184 193Q189 99 278 99Q311 99 343 111T413 148L469 54Q371 -17 258 -17Q145 -17 86 43T27 208Q27 288 57 366T156 496T328 548Q421 548 472 507T524 403Q524 302 429 255ZM282
296T324 326T367 394Q367 415 355 429T313 443Q262 443 232 399T191 289Q282 296 324 326ZM261 799T281 779T302 729Q302 693 276 667T213 641Q182 641 162 661T142 713Q142 748 168 773T230 799Q261 799 281 779ZM490 799T510 779T530 729Q530 693 504 667T441
641Q410 641 390 661T370 713Q370 748 396 773T458 799Q490 799 510 779Z" />
<glyph unicode="&#xec;" glyph-name="igrave" horiz-adv-x="278" d="M24 0L98 531H254L180 0H24ZM551 622L331 717L408 835L603 702L551 622Z" />
<glyph unicode="&#xed;" glyph-name="iacute" horiz-adv-x="278" d="M24 0L98 531H254L180 0H24ZM341 622L310 703L541 835L586 717L341 622Z" />
<glyph unicode="&#xee;" glyph-name="icircumflex" horiz-adv-x="278" d="M24 0L98 531H254L180 0H24ZM425 822H520L640 685L577 620L459 712L317 620L267 685L425 822Z" />
<glyph unicode="&#xef;" glyph-name="idieresis" horiz-adv-x="278" d="M24 0L98 531H254L180 0H24ZM378 799T398 779T419 729Q419 693 393 667T330 641Q299 641 279 661T259 713Q259 748 285 773T347 799Q378 799 398 779ZM607 799T627 779T647 729Q647 693 621
667T558 641Q527 641 507 661T487 713Q487 748 513 773T575 799Q607 799 627 779Z" />
<glyph unicode="&#xf0;" glyph-name="eth" horiz-adv-x="569" d="M477 612T509 540T542 375Q542 321 534 273Q522 191 484 125T385 21T244 -17Q180 -17 130 8T52 80T23 194Q23 262 49 328T130 436T264 479Q341 479 391 432Q383 480 365 516T312 584L249 528L157
574L221 633Q174 648 136 654L178 758Q253 745 315 719L399 798L470 727L406 668Q477 612 509 540ZM350 98T375 260Q381 302 383 327Q352 369 295 369Q233 369 208 314T182 190Q182 98 254 98Q350 98 375 260Z" />
<glyph unicode="&#xf1;" glyph-name="ntilde" horiz-adv-x="568" d="M466 549T498 515T531 420Q531 398 529 386L475 0H319L371 351Q374 366 374 377Q374 401 364 410T336 419Q310 419 280 385T220 292L179 0H24L98 531H233L230 438Q264 488 312 518T408 548Q466
549 498 515ZM384 635T369 642T334 662Q309 680 294 680Q276 680 263 669T233 634L161 676Q188 728 224 760T301 792Q323 792 338 785T373 765Q395 747 409 747Q425 747 438 757T469 792L542 751Q514 698 478 667T403 635Q384 635 369 642Z" />
<glyph unicode="&#xf2;" glyph-name="ograve" horiz-adv-x="574" d="M429 549T487 489T546 324Q546 243 517 165T422 35T250 -17Q145 -17 87 43T28 209Q28 291 57 368T152 497T324 548Q429 549 487 489ZM244 432T216 358T187 199Q187 147 205 123T261 99Q331 100
359 175T387 335Q387 385 369 408T313 432Q244 432 216 358ZM437 622L217 717L294 835L489 702L437 622Z" />
<glyph unicode="&#xf3;" glyph-name="oacute" horiz-adv-x="574" d="M429 549T487 489T546 324Q546 243 517 165T422 35T250 -17Q145 -17 87 43T28 209Q28 291 57 368T152 497T324 548Q429 549 487 489ZM244 432T216 358T187 199Q187 147 205 123T261 99Q331 100
359 175T387 335Q387 385 369 408T313 432Q244 432 216 358ZM227 622L196 703L427 835L472 717L227 622Z" />
<glyph unicode="&#xf4;" glyph-name="ocircumflex" horiz-adv-x="574" d="M429 549T487 489T546 324Q546 243 517 165T422 35T250 -17Q145 -17 87 43T28 209Q28 291 57 368T152 497T324 548Q429 549 487 489ZM244 432T216 358T187 199Q187 147 205 123T261 99Q331
100 359 175T387 335Q387 385 369 408T313 432Q244 432 216 358ZM311 822H406L526 685L463 620L345 712L203 620L153 685L311 822Z" />
<glyph unicode="&#xf5;" glyph-name="otilde" horiz-adv-x="574" d="M429 549T487 489T546 324Q546 243 517 165T422 35T250 -17Q145 -17 87 43T28 209Q28 291 57 368T152 497T324 548Q429 549 487 489ZM244 432T216 358T187 199Q187 147 205 123T261 99Q331 100
359 175T387 335Q387 385 369 408T313 432Q244 432 216 358ZM377 635T362 642T327 662Q302 680 287 680Q269 680 256 669T226 634L154 676Q181 728 217 760T294 792Q316 792 331 785T366 765Q388 747 402 747Q418 747 431 757T462 792L535 751Q507 698 471 667T396
635Q377 635 362 642Z" />
<glyph unicode="&#xf6;" glyph-name="odieresis" horiz-adv-x="574" d="M429 549T487 489T546 324Q546 243 517 165T422 35T250 -17Q145 -17 87 43T28 209Q28 291 57 368T152 497T324 548Q429 549 487 489ZM244 432T216 358T187 199Q187 147 205 123T261 99Q331
100 359 175T387 335Q387 385 369 408T313 432Q244 432 216 358ZM265 799T285 779T306 729Q306 693 280 667T217 641Q186 641 166 661T146 713Q146 748 172 773T234 799Q265 799 285 779ZM494 799T514 779T534 729Q534 693 508 667T445 641Q414 641 394 661T374
713Q374 748 400 773T462 799Q494 799 514 779Z" />
<glyph unicode="&#xf7;" glyph-name="divide" horiz-adv-x="509" d="M270 181T292 158T315 100Q315 60 286 30T216 0Q181 0 159 23T136 82Q136 121 166 151T236 181Q270 181 292 158ZM337 664T359 641T382 583Q382 543 353 513T283 483Q248 483 226 506T203 565Q203
604 233 634T303 664Q337 664 359 641ZM480 393L463 271H48L65 393H480Z" />
<glyph unicode="&#xf8;" glyph-name="oslash" horiz-adv-x="574" d="M465 508Q505 480 526 433T547 324Q547 243 518 165T422 35T250 -17Q239 -17 215 -15L162 -135L52 -101L109 23Q69 52 48 99T26 209Q26 291 55 368T152 497T324 548Q337 548 359 546L414 667L524
633L465 508ZM265 432T235 394T193 302T180 199Q180 161 192 143L326 431Q322 432 313 432Q265 432 235 394ZM263 99Q310 99 339 138T381 232T394 333Q394 369 383 385L249 100L263 99Z" />
<glyph unicode="&#xf9;" glyph-name="ugrave" horiz-adv-x="562" d="M330 0L333 79Q259 -17 165 -17Q102 -17 70 17T37 114Q37 125 39 151L93 531H248L199 177Q197 157 197 151Q197 128 206 119T234 109Q283 109 336 195L383 531H538L464 0H330ZM436 622L216 717L293
835L488 702L436 622Z" />
<glyph unicode="&#xfa;" glyph-name="uacute" horiz-adv-x="562" d="M330 0L333 79Q259 -17 165 -17Q102 -17 70 17T37 114Q37 125 39 151L93 531H248L199 177Q197 157 197 151Q197 128 206 119T234 109Q283 109 336 195L383 531H538L464 0H330ZM226 622L195 703L426
835L471 717L226 622Z" />
<glyph unicode="&#xfb;" glyph-name="ucircumflex" horiz-adv-x="562" d="M330 0L333 79Q259 -17 165 -17Q102 -17 70 17T37 114Q37 125 39 151L93 531H248L199 177Q197 157 197 151Q197 128 206 119T234 109Q283 109 336 195L383 531H538L464 0H330ZM310 822H405L525
685L462 620L344 712L202 620L152 685L310 822Z" />
<glyph unicode="&#xfc;" glyph-name="udieresis" horiz-adv-x="562" d="M330 0L333 79Q259 -17 165 -17Q102 -17 70 17T37 114Q37 125 39 151L93 531H248L199 177Q197 157 197 151Q197 128 206 119T234 109Q283 109 336 195L383 531H538L464 0H330ZM263 799T283
779T304 729Q304 693 278 667T215 641Q184 641 164 661T144 713Q144 748 170 773T232 799Q263 799 283 779ZM492 799T512 779T532 729Q532 693 506 667T443 641Q412 641 392 661T372 713Q372 748 398 773T460 799Q492 799 512 779Z" />
<glyph unicode="&#xfd;" glyph-name="yacute" horiz-adv-x="507" d="M225 -209T-13 -222L-17 -111Q60 -102 99 -77T167 1L116 0L31 531H193L228 102L388 531H551L316 -2Q225 -209 -13 -222ZM199 622L168 703L399 835L444 717L199 622Z" />
<glyph unicode="&#xfe;" glyph-name="thorn" horiz-adv-x="587" d="M472 548T513 495T555 341Q555 255 528 174T437 38T271 -17Q218 -17 179 -2L150 -206L-8 -223L128 742L285 759L247 487Q277 515 315 531T392 548Q472 548 513 495ZM308 98T338 135T382 227T396
338Q396 390 379 411T332 432Q279 432 231 371L195 111Q228 98 262 98Q308 98 338 135Z" />
<glyph unicode="&#xff;" glyph-name="ydieresis" horiz-adv-x="507" d="M225 -209T-13 -222L-17 -111Q60 -102 99 -77T167 1L116 0L31 531H193L228 102L388 531H551L316 -2Q225 -209 -13 -222ZM237 799T257 779T278 729Q278 693 252 667T189 641Q158 641 138 661T118
713Q118 748 144 773T206 799Q237 799 257 779ZM466 799T486 779T506 729Q506 693 480 667T417 641Q386 641 366 661T346 713Q346 748 372 773T434 799Q466 799 486 779Z" />
<glyph unicode="&#x2013;" glyph-name="endash" horiz-adv-x="510" d="M505 374L488 252H18L36 374H505Z" />
<glyph unicode="&#x2014;" glyph-name="emdash" horiz-adv-x="781" d="M776 374L759 252H18L36 374H776Z" />
<glyph unicode="&#x2018;" glyph-name="quoteleft" horiz-adv-x="217" d="M102 461T81 481T60 532Q60 555 67 574T92 623L181 766H262L198 607Q227 585 227 547Q227 511 200 486T135 461Q102 461 81 481Z" />
<glyph unicode="&#x2019;" glyph-name="quoteright" horiz-adv-x="239" d="M211 765T232 745T253 694Q253 671 246 652T221 603L132 460H51L115 619Q86 641 86 679Q86 715 113 740T178 765Q211 765 232 745Z" />
<glyph unicode="&#x201a;" glyph-name="quotesinglbase" horiz-adv-x="240" d="M124 142T145 122T166 71Q166 48 159 29T134 -20L45 -163H-36L28 -4Q-1 18 -1 56Q-1 92 26 117T91 142Q124 142 145 122Z" />
<glyph unicode="&#x201c;" glyph-name="quotedblleft" horiz-adv-x="422" d="M102 461T81 481T60 532Q60 555 67 574T92 623L181 766H262L198 607Q227 585 227 547Q227 511 200 486T135 461Q102 461 81 481ZM308 461T287 481T266 532Q266 555 273 574T298 623L387
766H468L404 607Q433 585 433 547Q433 511 406 486T341 461Q308 461 287 481Z" />
<glyph unicode="&#x201d;" glyph-name="quotedblright" horiz-adv-x="423" d="M417 765T438 745T459 694Q459 671 452 652T427 603L338 460H257L321 619Q292 641 292 679Q292 715 319 740T384 765Q417 765 438 745ZM212 765T233 745T254 694Q254 671 247 652T222
603L133 460H52L116 619Q87 641 87 679Q87 715 114 740T179 765Q212 765 233 745Z" />
<glyph unicode="&#x201e;" glyph-name="quotedblbase" horiz-adv-x="422" d="M124 142T145 122T166 71Q166 48 159 29T134 -20L45 -163H-36L28 -4Q-1 18 -1 56Q-1 92 26 117T91 142Q124 142 145 122ZM329 142T350 122T371 71Q371 48 364 29T339 -20L250 -163H169L233
-4Q204 18 204 56Q204 92 231 117T296 142Q329 142 350 122Z" />
<glyph unicode="&#x2022;" glyph-name="bullet" horiz-adv-x="337" d="M249 480T282 446T316 360Q316 317 295 281T239 224T162 203Q109 203 76 237T42 324Q42 367 63 403T119 459T196 480Q249 480 282 446Z" />
<glyph unicode="&#x2039;" glyph-name="guilsinglleft" horiz-adv-x="350" d="M192 285L289 78L186 13L30 234L43 334L258 556L348 491L192 285Z" />
<glyph unicode="&#x203a;" glyph-name="guilsinglright" horiz-adv-x="350" d="M312 234L96 13L7 78L164 285L66 491L169 556L326 334L312 234Z" />
</font>
</defs>
</svg>
